# xmcd
# Track frame offsets:
# 150
# 12182
# 22698
# 34512
# 64170
# 75639
# 87761
# 92780
# 104626
# 118503
# 130190
# 144011
# 149186
#
# Disc length: 2294 seconds
# Revision: 0
# Processed by: cddbd v1.5.1PL2 Copyright (c) Steve Scherf et al.
# Submitted via: VisiTrax 2.10.0.248 - For more info visit www.synapsa.com
#
DISCID=a208f40d
DTITLE=Merle Haggard - Okie From Muskogee
DYEAR=1969
DGENRE=
TTITLE0=Opening Introduction And Theme Mama Tried
TTITLE1=No Hard Times
TTITLE2=Silver Wings
TTITLE3=Swinging DoorsI I'm Lonesome Fugitive/Sing Me Back Home/Branded Man
TTITLE4=In The Arms Of Love
TTITLE5=Workin' Man Blues
TTITLE6=Introduction To Hobo Bill
TTITLE7=Hobo Bill's Last Ride
TTITLE8=Billy Overcame His Size
TTITLE9=If I Had Left It Up To You
TTITLE10=White Line Fever
TTITLE11=Blue Rock
TTITLE12=Okie From Muskogee
EXTD=LP Capitol ST 384
EXTT0=
EXTT1=
EXTT2=
EXTT3=
EXTT4=
EXTT5=
EXTT6=
EXTT7=
EXTT8=
EXTT9=
EXTT10=
EXTT11=
EXTT12=
PLAYORDER=
